<?xml version="1.0" encoding="utf-8"?>
<!-- Generator: Adobe Illustrator 24.0.2, SVG Export Plug-In . SVG Version: 6.00 Build 0)  -->
<svg version="1.1" id="Capa_1" xmlns="http://www.w3.org/2000/svg" xmlns:xlink="http://www.w3.org/1999/xlink" x="0px" y="0px"
	 viewBox="0 0 512 512" style="enable-background:new 0 0 512 512;" xml:space="preserve">
<style type="text/css">
	.st0{fill:#8E8E8E;}
</style>
<g>
	<path class="st0" d="M266.2,501.9c0,5.6-4.5,10.1-10.1,10.1c-5.6,0-10.1-4.5-10.1-10.1c0-5.6,4.5-10.1,10.1-10.1
		C261.7,491.8,266.2,496.4,266.2,501.9z M44.3,501.9v-12.7c0-67.2,45.6-103.8,65.5-115.8c27.1-16.2,56.2-28.5,86.7-36.6v-16.2
		c-5.1-4.5-9.7-9.6-13.8-15.3c-12.1-16.7-21.9-34.8-29.4-54c-6.8-0.9-13-5.3-16.2-12c-3-6.4-24.2-45.5-27.4-52.5
		c-8.2-17.6,2.5-35.1,16.1-40.7c2.3-0.9,4.6-1.6,7-2c-2.2-9-3.3-18.3-3.3-27.7C129.5,52.2,181.7,0,245.9,0c11.3,0,22,4.3,30.1,12.1
		c0.1,0.1,0.2,0.1,0.3,0C284.4,4.3,295.1,0,306.4,0c43.6,0,79.1,35.5,79.1,79.1v18.4c0,15.8-2.2,31.4-6.5,46.4
		c2.4,0.4,4.8,1,7.1,2.1c16.7,7.6,23.3,26.3,16.1,40.7c-3.4,6.9-24.4,46-27.4,52.5c-3.2,6.8-9.4,11.1-16.2,12
		c-7.4,19.2-17.3,37.4-29.4,54.1c-4.1,5.7-8.8,10.8-13.8,15.3v16.2c30.4,8.1,59.6,20.3,86.7,36.6c20,12,65.5,48.6,65.5,115.8v12.8
		c0,5.6-4.5,10.1-10.1,10.1H301.5c0,0,0,0,0,0c-5.8,0-10.4-4.9-10.1-10.8c0.4-5.4,5-9.4,10.4-9.4h145.7c0-42.6-21.4-80.6-55.7-101.2
		c-24.3-14.5-50.3-25.7-77.4-33.3c-5.4,27.2-29.5,47.8-58.3,47.8c-28.8,0-52.9-20.6-58.3-47.8c-27.2,7.6-53.2,18.8-77.4,33.3
		c-34.4,20.6-55.7,57.5-55.7,101.2h146.2c5.8,0,10.4,4.9,10,10.8c-0.4,5.3-5.1,9.4-10.4,9.4h-156C48.9,512,44.3,507.5,44.3,501.9
		L44.3,501.9z M149.7,118c0.9-1.1,14.8-18.2,38.8-18.2c11.9,0,23.4,4.2,32.5,11.6c8.4,6.8,19,10.6,30,10.6c26,0,46.8-20.9,47.4-47.6
		c0.1-5.5,4.6-9.9,10.1-9.9c5.5,0,10,4.4,10.1,9.9c0.3,12.9,7.2,24,18.1,29.1c10.7,5,19.6,12.6,26.2,21.9c1.7-9.2,2.6-18.5,2.6-27.9
		V79.1c0-32.5-26.4-59-59-59c-6,0-11.7,2.3-16.1,6.5c-7.9,7.7-20.4,7.7-28.3,0c-4.3-4.2-10.1-6.5-16.1-6.5
		C192.8,20.2,149.2,62.8,149.7,118z M295.3,334c-23.9,11.3-51.4,12.6-78.6,0v11.7c0,21.7,17.6,39.3,39.3,39.3s39.3-17.6,39.3-39.3
		V334z M313,293.5c12.5-17.3,22.4-36.3,29.4-56.4c1.2-3.5,5.9-8.9,13.8-5.7c3.7-8,24.8-46.9,27.8-53.3c2.3-4.9-0.5-11.3-5.8-13.5
		c-3-1.2-6.3-1-9.2,0.5c-6.3,3.2-14-0.6-14.8-7.5c-1.8-15.7-12-29-26.3-35.7c-7.2-3.4-13.4-8.4-18.2-14.5c-3,5.5-7,10.4-11.3,15
		c-19.1,20.6-59.1,29.8-90.3,4.7c-12.1-9.8-30.2-9.2-41.4,2.1c-6.1,6.2-9.6,14.5-9.6,22.9v4c0,7.4-7.8,12.3-14.6,9
		c-2.8-1.4-6-1.4-8.9-0.3c-4.6,1.8-8.5,7.7-5.8,13.5c3,6.5,24.5,46,27.7,53.2c8.9-3.1,13,3.3,14,5.9c7,20,16.9,39,29.4,56.2
		c13.4,18.6,34.2,29.2,56.9,29.2C278.8,322.7,299.5,312.1,313,293.5L313,293.5z M472.7,60.5V10.1c0-5.6-4.5-10.1-10.1-10.1h-50.4
		c-5.6,0-10.1,4.5-10.1,10.1s4.5,10.1,10.1,10.1h40.3v40.3c0,5.6,4.5,10.1,10.1,10.1S472.7,66,472.7,60.5z M472.7,335.6v-50.4
		c0-5.6-4.5-10.1-10.1-10.1s-10.1,4.5-10.1,10.1v40.3h-40.3c-5.6,0-10.1,4.5-10.1,10.1s4.5,10.1,10.1,10.1h50.4
		C468.2,345.7,472.7,341.2,472.7,335.6z M59.5,60.5V20.2h40.3c5.6,0,10.1-4.5,10.1-10.1S105.3,0,99.8,0H49.4
		c-5.6,0-10.1,4.5-10.1,10.1v50.4c0,5.6,4.5,10.1,10.1,10.1S59.5,66,59.5,60.5z M109.9,335.6c0-5.6-4.5-10.1-10.1-10.1H59.5v-40.3
		c0-5.6-4.5-10.1-10.1-10.1s-10.1,4.5-10.1,10.1v50.4c0,5.6,4.5,10.1,10.1,10.1h50.4C105.3,345.7,109.9,341.2,109.9,335.6z"/>
</g>
</svg>
